# Blender v2.75 (sub 0) OBJ File: 'plane.blend'
# www.blender.org
o Cube_Cube.002
v 0.892694 -0.893583 4.376647
v 0.892694 0.893583 4.376647
v -0.894280 -0.893583 4.376647
v -0.894280 0.893583 4.376647
v 0.892695 -0.893583 1.074155
v 0.892695 0.893583 1.074155
v -0.894279 -0.893583 1.074155
v -0.894279 0.893583 1.074155
v -0.894279 0.893583 -1.142729
v -0.894279 -0.893583 -1.142729
v 0.892695 0.893583 -1.142729
v 0.892695 -0.893583 -1.142729
v -0.536884 0.536150 -6.059643
v -0.536884 -0.536150 -6.059643
v 0.535300 0.536150 -6.059643
v 0.535300 -0.536150 -6.059643
v 1.444875 0.446791 2.182597
v 1.444875 -0.446791 2.182597
v 1.444875 0.446791 -2.251171
v 1.444875 -0.446791 -2.251171
v 4.389217 0.446791 2.182598
v 4.389217 -0.446791 2.182598
v 4.389217 0.446791 -2.251171
v 4.389217 -0.446791 -2.251171
v 4.931255 0.223396 1.074156
v 4.931255 -0.223396 1.074156
v 4.931255 0.223396 -1.142728
v 4.931255 -0.223396 -1.142728
v -1.424556 0.446791 2.182597
v -1.424556 -0.446791 2.182597
v -1.424556 0.446791 -2.251171
v -1.424556 -0.446791 -2.251171
v -4.601969 0.446791 2.182597
v -4.601969 -0.446791 2.182597
v -4.601969 0.446791 -2.251171
v -4.601969 -0.446791 -2.251171
v -5.068746 0.223396 1.074155
v -5.068746 -0.223396 1.074155
v -5.068746 0.223396 -1.142729
v -5.068746 -0.223396 -1.142729
v 1.786181 -1.787166 5.933512
v 1.786181 1.787166 5.933512
v -1.787767 1.787166 5.933512
v -1.787767 -1.787166 5.933512
v -0.447536 1.367328 0.519934
v 0.445951 1.367328 0.519934
v -0.447536 1.367328 -0.588508
v 0.445951 1.367328 -0.588508
v -0.447536 2.481034 0.519934
v 0.445951 2.481034 0.519934
v -0.447536 2.481034 -0.588508
v 0.445951 2.481034 -0.588508
v -0.215229 0.214460 -6.769722
v -0.215229 -0.214460 -6.769722
v 0.213645 0.214460 -6.769722
v 0.213645 -0.214460 -6.769722
v -0.108010 0.107230 -7.142087
v -0.108010 -0.107230 -7.142087
v 0.106427 0.107230 -7.142087
v 0.106427 -0.107230 -7.142087
vn 0.000000 0.867300 -0.497800
vn -1.000000 0.000000 -0.000000
vn -0.895100 0.000000 0.445900
vn 1.000000 0.000000 0.000000
vn 0.000000 -1.000000 0.000000
vn 0.000000 1.000000 0.000000
vn -0.997400 0.000000 -0.072500
vn -0.727500 0.686100 -0.000000
vn 0.902100 0.000000 -0.431600
vn 0.000000 -0.910900 -0.412700
vn 0.000000 -0.997400 -0.072500
vn 0.000000 0.997400 -0.072500
vn 0.997400 0.000000 -0.072500
vn 0.629000 0.777400 0.000000
vn 0.629000 -0.777400 0.000000
vn -0.895100 0.000000 -0.445900
vn 0.381000 0.924600 0.000000
vn 0.000000 0.000000 1.000000
vn 0.000000 0.000000 -1.000000
vn 0.898300 0.000000 -0.439300
vn 0.381000 -0.924600 0.000000
vn 0.898300 0.000000 0.439300
vn -0.644300 0.764700 -0.000000
vn -0.644300 -0.764700 -0.000000
vn 0.902100 0.000000 0.431600
vn -0.431700 0.902000 0.000000
vn -0.921600 0.000000 -0.388100
vn -0.431700 -0.902000 0.000000
vn -0.921600 0.000000 0.388100
vn -0.867300 0.000000 -0.497800
vn 0.867300 0.000000 -0.497800
vn 0.000000 -0.867300 -0.497800
vn 0.727500 0.686100 0.000000
vn 0.000000 0.760100 -0.649800
vn -0.000000 0.760100 0.649800
vn -0.961000 0.000000 -0.276700
vn 0.000000 0.910900 -0.412700
vn 0.910900 0.000000 -0.412600
vn -0.910900 0.000000 -0.412600
vn 0.000000 -0.960900 -0.276700
vn 0.000000 0.960900 -0.276700
vn 0.961000 0.000000 -0.276700
s off
f 4//1 43//1 42//1
f 8//2 7//2 3//2
f 5//3 18//3 17//3
f 2//4 1//4 5//4
f 3//5 7//5 5//5
f 6//6 8//6 4//6
f 9//7 13//7 14//7
f 7//5 10//5 12//5
f 8//8 45//8 47//8
f 10//9 32//9 31//9
f 14//10 54//10 56//10
f 12//11 10//11 14//11
f 11//12 15//12 13//12
f 12//13 16//13 15//13
f 20//5 24//5 22//5
f 6//14 17//14 19//14
f 12//15 20//15 18//15
f 11//16 19//16 20//16
f 21//17 25//17 27//17
f 18//18 22//18 21//18
f 17//6 21//6 23//6
f 19//19 23//19 24//19
f 26//4 28//4 27//4
f 23//20 27//20 28//20
f 22//21 24//21 28//21
f 22//22 26//22 25//22
f 30//5 34//5 36//5
f 9//23 31//23 29//23
f 7//24 30//24 32//24
f 8//25 29//25 30//25
f 33//26 35//26 39//26
f 29//18 33//18 34//18
f 31//6 35//6 33//6
f 32//19 36//19 35//19
f 37//2 39//2 40//2
f 36//27 40//27 39//27
f 36//28 34//28 38//28
f 33//29 37//29 38//29
f 43//18 44//18 41//18
f 3//30 44//30 43//30
f 2//31 42//31 41//31
f 1//32 41//32 44//32
f 45//2 49//2 51//2
f 11//33 48//33 46//33
f 9//34 47//34 48//34
f 6//35 46//35 45//35
f 50//6 52//6 51//6
f 47//19 51//19 52//19
f 48//4 52//4 50//4
f 46//18 50//18 49//18
f 53//36 57//36 58//36
f 15//37 55//37 53//37
f 16//38 56//38 55//38
f 13//39 53//39 54//39
f 59//19 60//19 58//19
f 54//40 58//40 60//40
f 55//41 59//41 57//41
f 56//42 60//42 59//42
f 2//1 4//1 42//1
f 4//2 8//2 3//2
f 6//3 5//3 17//3
f 6//4 2//4 5//4
f 1//5 3//5 5//5
f 2//6 6//6 4//6
f 10//7 9//7 14//7
f 5//5 7//5 12//5
f 9//8 8//8 47//8
f 9//9 10//9 31//9
f 16//10 14//10 56//10
f 16//11 12//11 14//11
f 9//12 11//12 13//12
f 11//13 12//13 15//13
f 18//5 20//5 22//5
f 11//14 6//14 19//14
f 5//15 12//15 18//15
f 12//16 11//16 20//16
f 23//17 21//17 27//17
f 17//18 18//18 21//18
f 19//6 17//6 23//6
f 20//19 19//19 24//19
f 25//4 26//4 27//4
f 24//20 23//20 28//20
f 26//21 22//21 28//21
f 21//22 22//22 25//22
f 32//5 30//5 36//5
f 8//23 9//23 29//23
f 10//24 7//24 32//24
f 7//25 8//25 30//25
f 37//26 33//26 39//26
f 30//18 29//18 34//18
f 29//6 31//6 33//6
f 31//19 32//19 35//19
f 38//2 37//2 40//2
f 35//27 36//27 39//27
f 40//28 36//28 38//28
f 34//29 33//29 38//29
f 42//18 43//18 41//18
f 4//30 3//30 43//30
f 1//31 2//31 41//31
f 3//32 1//32 44//32
f 47//2 45//2 51//2
f 6//33 11//33 46//33
f 11//34 9//34 48//34
f 8//35 6//35 45//35
f 49//6 50//6 51//6
f 48//19 47//19 52//19
f 46//4 48//4 50//4
f 45//18 46//18 49//18
f 54//36 53//36 58//36
f 13//37 15//37 53//37
f 15//38 16//38 55//38
f 14//39 13//39 54//39
f 57//19 59//19 58//19
f 56//40 54//40 60//40
f 53//41 55//41 57//41
f 55//42 56//42 59//42
